{"title":"Dances with Wolves [1990] ExtCut 720p BRRip XviD AC3 - CODY","uid":6437893,"size":4192792761,"categoryP":"video","categoryS":"hd___movies","magnet":"?xt=urn:btih:cf8a687d1fab796a9484ccfa06962cdcaebae298&amp;dn=Dances+with+Wolves+%5B1990%5D+ExtCut+720p+BRRip+XviD+AC3+-+CODY&amp;tr=udp%3A%2F%2Ftracker.openbittorrent.com%3A80&amp;tr=udp%3A%2F%2Fopen.demonii.com%3A1337&amp;tr=udp%3A%2F%2Ftracker.coppersurfer.tk%3A6969&amp;tr=udp%3A%2F%2Fexodus.desync.com%3A6969","seeders":1,"leechers":1,"uploader":"CODYBOSS1969","files":18,"time":1306860005,"description":"General\nComplete name                    : Dances with Wolves [1990] 20th Annniversary ExtCut 720p BRRip XviD AC3 - CODY.avi\nFormat                           : AVI\nFormat/Info                      : Audio Video Interleave\nFormat profile                   : OpenDML\nFile size                        : 3.85 GiB\nDuration                         : 3h 53mn\nOverall bit rate                 : 2 357 Kbps\nWriting application              : VirtualDubMod 1.5.10.2 (build 2540/release)\nWriting library                  : VirtualDubMod build 2540/release\n\n\nVideo\nID                               : 0\nFormat                           : MPEG-4 Visual\nFormat profile                   : Advanced Simple@L5\nFormat settings, BVOP            : 4\nFormat settings, QPel            : No\nFormat settings, GMC             : No warppoints\nFormat settings, Matrix          : Default (H.263)\nMuxing mode                      : Packed bitstream\nCodec ID                         : XVID\nCodec ID/Hint                    : XviD\nDuration                         : 3h 53mn\nBit rate                         : 1 899 Kbps\nWidth                            : 1 280 pixels\nHeight                           : 544 pixels\nDisplay aspect ratio             : 2.35:1\nFrame rate                       : 23.976 fps\nColor space                      : YUV\nChroma subsampling               : 4:2:0\nBit depth                        : 8 bits\nScan type                        : Progressive\nCompression mode                 : Lossy\nBits/(Pixel*Frame)               : 0.114\nStream size                      : 3.10 GiB (81%)\nWriting library                  : XviD 1.2.0.dev47 (UTC 2006-11-01)\n\n\nAudio\nID                               : 1\nFormat                           : AC-3\nFormat/Info                      : Audio Coding 3\nMode extension                   : CM (complete main)\nCodec ID                         : 2000\nDuration                         : 3h 53mn\nBit rate mode                    : Constant\nBit rate                         : 448 Kbps\nChannel(s)                       : 6 channels\nChannel positions                : Front: L C R, Side: L R, LFE\nSampling rate                    : 48.0 KHz\nBit depth                        : 16 bits\nCompression mode                 : Lossy\nStream size                      : 749 MiB (19%)\nAlignment                        : Split accross interleaves\nInterleave, duration             : 42 ms (1.00 video frame)\nInterleave, preload duration     : 500 ms\n\n\n\n\nIMDB link:                       &lt;a href=&quot; http://www.imdb.com/title/tt0099348/&quot; rel=&quot;nofollow&quot; target=&quot;_NEW&quot;&gt; http://www.imdb.com/title/tt0099348/&lt;/a&gt;\n\n  \n\n\nSubtitles included               : - Bulgarian\n\n                                   - Czech\n\t\t\t\t\t\t\t\t   \n                                   - English [full and only for non-English parts]\n\t\t\t\t\t\t\t\t   \n\t\t\t\t   - French\n\t\t\t\t\t\t\t\t   \n\t\t\t\t   - Greek\n\t\t\t\t\t\t\t\t   \n\t\t\t\t   - Polish\n\t\t\t\t\t\t\t\t   \n\t\t\t\t   - Portuguese - Brasilian\n\t\t\t\t\t\t\t\t   \n\t\t\t\t   - Romanian\n\t\t\t\t\t\t\t\t   \n\t\t\t\t   - Spanish\n\t\t\t\t\t\t\t\t   \n\t\t\t\t   - Swedish\n\t\t\t\t\t\t\t\t   \n\n\n\t\nPlease seed at least 1,5:1. This way this torrent has a chance to survive!\n\n\n\n\nThanks. Enjoy !!!\t\n\t\t\t\t\t\t\t\t   \n\t\t\t\t\t\t\t\t   ","torrent":{"xt":"urn:btih:cf8a687d1fab796a9484ccfa06962cdcaebae298","amp;dn":"Dances+with+Wolves+%5B1990%5D+ExtCut+720p+BRRip+XviD+AC3+-+CODY","amp;tr":["udp%3A%2F%2Ftracker.openbittorrent.com%3A80","udp%3A%2F%2Fopen.demonii.com%3A1337","udp%3A%2F%2Ftracker.coppersurfer.tk%3A6969","udp%3A%2F%2Fexodus.desync.com%3A6969"],"infoHash":"cf8a687d1fab796a9484ccfa06962cdcaebae298","infoHashBuffer":{"type":"Buffer","data":[207,138,104,125,31,171,121,106,148,132,204,250,6,150,44,220,174,186,226,152]},"announce":[],"urlList":[]}}